<svg width="18" height="26" viewBox="0 0 18 26" fill="none" xmlns="http://www.w3.org/2000/svg">
<path d="M6.5 0C8.22391 0 9.87721 0.980941 11.0962 2.72703C12.3152 4.47311 13 6.84131 13 9.31065C13 11.6168 12.41 13.7368 11.44 15.3697L11.71 15.7565H12.5L17.5 22.9185L16 25.0671L11 17.9051V16.7735L10.73 16.3867C9.59 17.7762 8.11 18.6213 6.5 18.6213C4.77609 18.6213 3.12279 17.6404 1.90381 15.8943C0.684819 14.1482 0 11.78 0 9.31065C0 6.84131 0.684819 4.47311 1.90381 2.72703C3.12279 0.980941 4.77609 0 6.5 0ZM6.5 2.86482C4 2.86482 2 5.72963 2 9.31065C2 12.8917 4 15.7565 6.5 15.7565C9 15.7565 11 12.8917 11 9.31065C11 5.72963 9 2.86482 6.5 2.86482Z" fill="black"/>
</svg>
